<?xml version="1.0" encoding="utf-8"?>
<!-- Generator: Adobe Illustrator 25.4.1, SVG Export Plug-In . SVG Version: 6.00 Build 0)  -->
<svg version="1.1" xmlns="http://www.w3.org/2000/svg" xmlns:xlink="http://www.w3.org/1999/xlink" x="0px" y="0px"
	 viewBox="0 0 782.4 290.7" style="enable-background:new 0 0 782.4 290.7;" xml:space="preserve">
<style type="text/css">
	.st0{fill:#00356B;}
	.st1{fill:#222222;}
	.st2{fill:#FFFFFF;}
	.st3{fill:#FABD0A;}
</style>
<g id="Layer_1">
	<path class="st0" d="M448.8,77.8l-50.9,85.8v57.7c5.9,13.9,20.7,15.7,34.9,16.4v8H333v-8c14.2-0.6,31.5-2.8,36.1-12v-59.6
		l-51.8-87.7c-9-14.8-17.6-19.8-34.9-21v-8h86.7v8c-16.4,0.9-21.6,4-26.2,7.7l48.1,83.3l47.2-83c-4.9-3.7-11.4-7.1-27.8-8v-8h74.1v8
		C467.9,58,457.4,63.6,448.8,77.8z M550,248.5c-16.7,0-24.7-11.4-25.3-19.4c-10.5,11.1-24.1,19.4-37,19.4
		c-16.7,0-30.9-10.2-30.9-27.8c0-8.6,2.2-17.6,6.5-24.7l61.4-22.2V151c0-13.9-6.5-27.2-20.4-27.2c-8.3,0-16.4,10.2-17,25.9
		l-27.8,4.6v-3.1c9.3-27.8,39.8-38.6,54.6-38.6c28.1,0,38.3,14.8,38,37.7l-0.9,64.8c-0.3,12.7,6.5,15.7,12.7,15.7
		c4.9,0,9.9-3.1,15.7-8.9v8.9C572.8,238.9,560.8,248.5,550,248.5z M488.3,198.1c-1.2,4.9-2.2,9.3-2.2,16c0,9.3,5.2,18.5,15.4,18.5
		c9.3,0,14.5-3.1,22.8-9.6l0.3-41.7C516.7,185.2,496.9,193.8,488.3,198.1z M582.4,245.7v-7.1c13.9-0.9,17.9-4,20.4-9.3V69.4
		c0-10.5-1.5-14.8-22.8-16.7v-6.2l56.4-14.1l1.9,5.2l-8.9,11.1v180.6c3.1,6.2,8.9,8.3,21.6,9.3v7.1L582.4,245.7L582.4,245.7z
		 M725,248.1c-32.4,0-57.4-25.6-57.4-61.4c0-43.8,26.9-73.8,64.8-73.8c30.6,0,47.5,17.3,47.5,44.8v5.6l-83.3-0.6
		c-0.6,3.4-0.9,9-0.9,15.7c0,31.5,19.8,52.2,46,52.2c15.7,0,23.8-5.6,36.1-16l4.6,7.1C764.8,237.6,750.3,248.1,725,248.1z
		 M727.8,122.5c-15.4,0-26.2,12.3-29.9,31.8l54.3-0.6C752.2,137.3,742,122.5,727.8,122.5z"/>
</g>
<g id="Layer_2">
	<g transform="matrix(1.25 0 0 -1.25 26.771 762.62)">
		<g transform="matrix(3.125 0 0 3.125 -189.27 -1045.1)">
			<path class="st1" d="M62,529.7c-0.2-6-0.1-12.3-0.1-18.4c0-3.8-0.2-7.9,0.1-11.7c0.4-5.1,0.5-9.1,2.1-12.7
				c3.4-7.5,11.8-12.2,19.9-15c1.3-0.5,2.6-0.8,4-1.2c0.3-0.1,0.8-0.4,1.1-0.4c0.8-0.1,4,1.2,4.8,1.5c8.2,2.8,17.3,7.9,20.6,15.6
				c1.4,3.3,1.6,6.8,1.9,11.4c0.2,3.3,0.1,7,0.1,10.4v20.6L62,529.7L62,529.7z M122.4,478.6c-0.7-0.1-2.5-1.7-3.2-2.1
				c-2.6-1.4-5.2-2.9-8.1-4c0-1.4-0.2-1.4,0.8-0.9c3.3,1.4,6,3.1,9,4.7c-0.2-0.5-1.1-4-1-4.5c0.1-0.5,2.6-3,3.1-3.4
				c-1.5-0.4-2.5-1.1-4-1.6c0-0.1-0.1-0.3-0.1-0.5c0-0.3,0.1-0.6,0.4-0.6c1.1,0,4.1,2,5.3,2.4c-0.6,0.4-3.6,3.4-3.7,4
				c-0.1,0.5,0.8,3.8,0.9,4.4c0.2,0.7,0.5,1.4,0.6,2C122.5,478.5,122.6,478.7,122.4,478.6L122.4,478.6z M56,478.3
				c-0.2,0,0.5-1.9,0.6-2.5c0.1-0.6,0.9-3.7,0.8-4.1c-0.1-0.5-3.2-3.6-3.7-4c0.3-0.1,0.5-0.1,0.8-0.2c1.6-0.7,3-1.6,4.7-2.2
				c0.2,0.9,0.3,1-0.5,1.4c-1,0.4-2,1.1-3.2,1.4c1.2,1,2,2.3,3.1,3.4c-0.4,1.2-0.5,2.7-0.9,4c0,0-0.2,0.5-0.2,0.5
				c0,0,0.1,0.1,0.7-0.3c1.9-1.2,3.9-2.3,6-3.2c0.9-0.4,1.9-0.8,2.8-1.2c0,0.3,0.1,0.8,0.1,1.2c-2.5,1.2-4.9,2.2-7.3,3.5
				c-1.1,0.6-2.2,1.3-3.3,2C56.5,478,56.2,478.3,56,478.3L56,478.3z M117.4,472.6c-2-1.4-4.6-2.3-7.1-3.2c-4-1.5-8.5-3-13.4-3.5
				c-13.9-1.4-27.2,1.2-35.8,6.4c0-3-0.9-8.6-1.9-10.8c1.2-0.3,2.1-0.8,3.2-1.2c2-0.7,4-1.5,6-2.2c8.6-2.6,21.1-3.8,31.6-2.1
				c4.4,0.7,8.7,1.7,12.5,3.1c2.2,0.8,4.3,2.1,6.7,2.6c-0.5,1-0.6,2.1-0.8,3.3C118,467.4,117.4,469.9,117.4,472.6L117.4,472.6z"/>
			<path class="st0" d="M114.9,528.4c-12.1,0.1-24.8-0.1-37.1-0.1H68c-1.5,0-3.2-0.1-4.6,0.1c0.4-2.6,0.1-5.9,0.1-8.7V505
				c0-8.4,0.1-15.6,3.6-20.3c2.5-3.4,5.9-5.9,9.7-8c3-1.7,6.3-2.9,9.9-4.1c0.6-0.2,1.8-0.8,2.4-0.9c0.4,0,1.1,0.5,1.5,0.6
				c2.6,0.7,4.8,1.6,7.1,2.6c5.7,2.6,11.4,5.9,14.4,11.2c0.4,0.6,0.6,1.3,0.9,1.9c0.2,0.4,0.4,0.9,0.6,1.3c0.1,0.3,0.1,0.4,0.1,0.6
				c0.1,0.3,0.2,0.6,0.3,1c0.1,0.3,0.1,0.6,0.2,1c0.1,0.4,0.1,0.8,0.2,1.2c0.1,0.5,0.2,1.1,0.2,1.7c0,0.4,0.1,0.9,0.1,1.5
				c0.2,2.6,0.1,5.5,0.1,8.1v15.7c0,2.5-0.1,5.5,0.1,7.8C114.9,528.1,115.4,528.4,114.9,528.4"/>
			<path class="st1" d="M104.2,519.5c-1.1-0.5-2.3-1.1-3.9-1.2c-5.4-0.5-10.3,1.9-11.2-3.7c-0.4,5.6-6.1,3.3-11.2,3.7
				c-1.5,0.1-2.7,0.6-3.7,1.2c-0.5-0.9-1.2-1.7-1.8-2.5c-0.7,0.1-1.4,0.1-2.1,0.1c0.4-2.6,0.1-5.7,0.1-8.4v-19.9h10.2
				c1.8,0,4.1-0.2,5.4,0.3c-0.8-2.2,0-3.2,2.7-3.2c2.9,0,4.7,0.4,3.6,3.2c1.5-0.4,3.7-0.3,5.7-0.3h10v28.4c-0.7,0-1.4,0-2-0.1
				C105.4,517.9,104.7,518.7,104.2,519.5L104.2,519.5z M109.9,517.6c-0.1,0-0.1-0.1-0.1-0.2c0.2-1.3,0.3-2.9,0.2-4.4
				c-0.1-1.2-0.1-1.8-1.4-1.7c0-0.2,0-0.3,0-0.5c0.8-0.2,1.7-0.3,2.8-0.3c0-0.2,0-0.3-0.1-0.5c-0.4-0.8-1.8-0.5-2.7-0.4
				c0-0.2,0.1-0.5,0.1-0.6c0.7-0.1,1.8-0.4,2.4-0.1c1.6,0.8,1.1,6.2,1.6,8.4c-1.1-0.7-1.3-1-2.3-0.1
				C110.2,517.2,110,517.6,109.9,517.6L109.9,517.6z M68.5,517L68.5,517c-1.3-1-1.2-1-2.6-0.3c0.3-2.2,0-7.6,1.8-8.1
				c0.7-0.2,1.5,0.1,2.1,0.2c0,0.1,0.1,0.4,0.1,0.6c-1.4-0.2-2-0.3-2.8,0.5c0,0,0,0.3,0,0.4c1,0.1,2,0.1,2.8,0.4c0,0.1,0,0.3,0,0.4
				c-0.3,0-0.7,0-0.9,0.1C68.1,511.5,68.5,515.8,68.5,517L68.5,517z M68.5,501.9c-0.3-0.3-0.6-0.7-0.9-1c-0.6-0.5-1.2,0.2-1.7,0.6
				c0.1-1.4,0.3-6.3,0.8-7.1c0.4-0.6,1.3-0.7,2.2-0.6c1.3,0.2,1.2,0.8-0.2,0.6c-1-0.1-1.4,0.1-1.7,0.9l0.1,0.2c1,0,2,0,2.7,0.2
				c-0.3,1.1-0.7,0-1.1,0.6C68.1,497.2,68.4,500.8,68.5,501.9L68.5,501.9z M109.7,501.3c0.2-1.1,0.4-4.7-0.1-5.5
				c-0.5-0.6-0.9,0.5-1.2-0.6c0.8-0.2,1.7-0.2,2.7-0.2l0.1-0.2c-0.3-0.8-0.7-1-1.7-0.9c-1.5,0.2-1.5-0.5-0.2-0.6
				c1-0.1,1.8,0,2.2,0.6c0.5,0.8,0.7,5.7,0.8,7.1c-0.4-0.3-1.1-1-1.7-0.6C110.3,500.5,110,501,109.7,501.3L109.7,501.3z"/>
			<path class="st2" d="M103.4,518.4c-1.1-0.6-2.6-1.1-4.5-1c-2.4,0.1-6,0.7-7.7-0.4c-0.8-0.5-1.4-1.5-1.7-2.6
				c-0.1-0.5,0-0.9-0.1-1.4c-0.5-7-0.1-14.4-0.1-21.5c2.1,4.1,7.9,1.6,12.4,3c0.5,0.2,1.4,0.4,1.7,0.8c0.4,0.5,0.1,3.7,0.1,4.6v18.6
				C103.6,518.4,103.4,518.4,103.4,518.4L103.4,518.4z M74.7,518.3v-18.4c0-0.9-0.3-4.1,0.1-4.7c0.7-1.2,5.1-1.4,7.2-1.2
				c3.4,0.3,5.8-0.2,6.8-2.4v16c0,2.2,0.3,4.9-0.1,6.8c-0.2,0.9-0.7,1.7-1.3,2.2c-2.2,1.8-6.5,0.4-10,0.7
				C76.4,517.5,75.5,518,74.7,518.3L74.7,518.3z M110.4,516.3c0.1-1.6,0.1-3.5-0.1-5c0.3-0.1,0.6-0.1,1.1-0.1c0.4,1.4,0.2,3.4,0.4,5
				C111,515.6,111.1,515.5,110.4,516.3L110.4,516.3z M67.9,515.9c-0.8-0.7-0.5-0.8-1.4-0.1c0.2-1.6,0.1-3.4,0.4-5
				c0.4,0,0.8,0.1,1.1,0.1c0,0.3-0.1,0.7-0.1,0.9C67.8,513.2,67.9,514.8,67.9,515.9L67.9,515.9z M108.5,510.8v-1.2
				c1-0.1,2.4-0.4,2.7,0.4c0.1,0.2,0,0.3,0.1,0.5C110.3,510.5,109.3,510.6,108.5,510.8L108.5,510.8z M69.8,510.7
				c-0.8-0.2-1.8-0.3-2.8-0.4c0,0,0-0.3,0-0.4c0.8-0.8,1.4-0.7,2.8-0.5V510.7z M67.9,500.6c-0.7-0.9-0.5-0.8-1.4-0.1
				c0.2-1.4,0.2-2.9,0.4-4.2c0.3,0,0.8,0,1.1,0C68,497.6,67.9,499.2,67.9,500.6L67.9,500.6z M110.3,500c-0.1-1.4-0.1-3-0.1-4.4
				c0.3,0,0.8,0,1.1,0c0.2,1.4,0.3,2.9,0.4,4.2C110.8,499.2,111,499.1,110.3,500L110.3,500z M69.8,495.7c-0.8-0.2-1.7-0.2-2.7-0.2
				l-0.1-0.2c0.3-0.8,0.7-1,1.7-0.9c0.4,0,0.7,0,0.9,0L69.8,495.7L69.8,495.7z M108.4,495.2l0.1-1.4c0.2,0.1,0.5,0.1,1,0.1
				c1-0.1,1.4,0.1,1.7,0.9l-0.1,0.2C110.1,494.9,109.1,495,108.4,495.2L108.4,495.2z M86.6,489c0.1-0.4,0.1-1.1,0.4-1.4
				c0.5-0.8,3.2-0.8,4.1-0.3c0.5,0.3,0.5,1.2,0.7,1.7c0,0-0.4,0-0.3-0.1C90.2,487.9,87.9,488.2,86.6,489L86.6,489z M116.3,470.8
				c-13.5-8.4-40.8-8.5-54.4-0.1c0.3-1.9-0.6-7-1.3-8.4c1.2-0.3,2.2-1,3.3-1.4c1.9-0.7,3.9-1.4,5.9-2c8-2.3,19.4-3.2,29-1.8
				c4.4,0.6,8.6,1.6,12.4,3c1.4,0.5,2.8,1.1,4.2,1.6c0.8,0.3,1.3,0.8,2.3,0.9C117,464,116.4,468.7,116.3,470.8L116.3,470.8z"/>
			<path class="st3" d="M104.3,517.9c0.3-1.9,0.1-4.4,0.1-6.5v-12.1c0-1.5-0.3-3.4,0-4.9c0.1-0.7,0.9-1.5,1.2-2
				c0.3-0.5,0.7-0.9,1-1.3c-0.3,2.6-0.1,5.7-0.1,8.5v16C105.5,515.9,104.9,517,104.3,517.9L104.3,517.9z M74.1,517.8
				c0,0-0.1,0-0.1,0c-0.2-0.1-0.2-0.6-0.4-0.8c-0.4-0.7-1-1.2-1.8-1.6v-16.2c0-2.5,0.2-5.3-0.1-7.6c0-0.2-0.1-0.8,0.1-0.7
				c0.3,0.1,2.1,3,2.2,3.5c0.3,1.6,0,3.5,0,5.1V512c0,1.8-0.2,3.9,0.1,5.6C74.2,517.5,74.2,517.7,74.1,517.8L74.1,517.8z
				 M103.4,494.3c-0.9-0.5-1.9-0.9-3.2-1.1c-3.2-0.3-7.2,0.6-9.2-0.8c-1-0.7-1.5-1.9-1.6-3.2c0.6,0.2,1.2,0.3,1.7,0.6
				c0.2,0.1,0.5,0.5,0.7,0.6c0.7,0.1,1.9-0.3,2.9-0.2c1.9,0.1,4.1-0.1,6.2,0.1c1.4,0.1,3.7,0.3,5-0.1
				C105.2,491.5,104.2,492.8,103.4,494.3L103.4,494.3z M74.8,494.1c-0.7-1.7-1.7-2.9-2.7-4.4c0.9,0.4,2.4,0.4,3.8,0.4
				c3.1,0,6.7-0.4,9.7,0c0.1,0,0.6,0.3,0.7,0.3c0.1,0,0.5-0.5,0.6-0.6c0.5-0.3,1.2-0.5,1.8-0.6c-0.1,1.6-0.7,2.7-1.9,3.4
				c-2.1,1.2-6.1,0.2-9.1,0.6C76.7,493.2,75.8,493.7,74.8,494.1L74.8,494.1z"/>
			<path class="st1" d="M76.6,513.5L76.6,513.5c-1.1-0.9-0.9-2.2,0.2-2.7c-0.3-0.4-0.8-0.9-0.9-1.5c-0.1-1,0.3-1.6-0.1-2.4
				c0,0,0-0.1,0.1-0.2c0.2,0.4,0.7,0.8,0.8,1.3c0.1,0.7-0.2,1.4,0,2c0.1,0.5,0.6,1,0.9,1.4c1-0.5,2.8-0.9,2.2-2.4
				c-0.1-0.2-0.2-0.5-0.4-0.6c-0.5-0.2-1.5-0.1-2.1-0.1c-0.2-0.5-0.3-0.8-0.4-1.3c0.1,0,0.5,0.1,0.5,0.1c2,0,2.1-0.3,2.7,1.3
				c0.2,0.7,0.7,1.7,0.6,2.6c-0.2,1.3-2.3,0.7-2.2,2.7c-0.6-0.5-0.9-2-1.8-1.2C76.5,512.6,76.5,513.1,76.6,513.5L76.6,513.5z
				 M81.5,513.4c-0.2-1.1-0.4-2.2,0.7-2.6c-0.3-0.9-0.2-1.5-0.1-2.6c-1.3-0.3-1.1-0.1-1.4-1.4c3,0,2.3,0.6,1.8,2.7
				c-0.3,1.3,0.3,1.8,1.7,1.4c0.7-0.2,0.4-3.1,0.4-4c0.6,0.2,0.7,0.6,1,1.1c-0.7,0.7-0.2,3.9-0.9,4.2
				C83.2,512.9,82,511.3,81.5,513.4L81.5,513.4z M101.6,513.4c-0.2-0.3-0.6-0.6-0.7-0.9c-0.3-1.2,1.3-0.9,0.4-2.1
				c-1.3,0.5-2.7,1.1-2.6,2.9c-0.3-0.2-0.5-0.4-0.6-0.7c-0.4-1.3,0.4-2.1,1.2-2.6c-0.2-0.1-0.4-0.3-0.6-0.4
				c-0.5-0.5-0.4-1.2-0.3-2.1c-0.1,0-0.4-0.1-0.5-0.1c-0.1-0.1,0-0.3-0.1-0.4c0.9-0.1,2.1-0.3,1.9,0.9c-0.1,0.3-0.5,0.6-0.5,0.9
				c-0.1,0.5,0.1,0.7,0.3,1c1.2-0.6,2.9-1.2,2.1-2.8c0.4,0.1,0.3-0.1,0.5,0.2c0.7,1,0.8,2-0.2,2.7c-0.1,0.1-0.4,0.3-0.4,0.3
				c0.6,0.4,1.4,1.3,0.7,2.1c-0.1,0.1-0.5,0.3-0.5,0.5C101.6,513.2,101.9,513.1,101.6,513.4L101.6,513.4z M85.9,513.3
				c-0.5-1.2-0.6-2.6,1.1-2.5c-0.2-1.2,0-2.7-0.2-3.9c0.7,0.1,0.8,0.6,1.1,1.2c-0.1,0.1-0.2,0.1-0.3,0.2c-0.2,0.4-0.3,1.9-0.1,2.5
				c0.1,0.3,0.6,0.3,0.4,1c-0.2,0.7-1.5,0.2-1.8,0.9C86.1,512.8,85.9,513.3,85.9,513.3L85.9,513.3z M95.2,513.3
				c-0.4-1.1-0.6-2.7,1.1-2.4c-0.2-0.8-0.6-5.5,0.6-3.3c0.1,0.1,0.1,0.2,0.1,0.4c0,0-0.1,0.3-0.1,0.3c-0.4,0.7-0.1,1.8-0.2,2.7
				c0.5,0.2,0.9,0.5,0.5,1.2C96.7,512.7,95.7,511.7,95.2,513.3L95.2,513.3z M90.9,513c-0.3-0.4-0.2-0.8-0.1-1.4
				c0.4-1.7,2.4-0.2,2.9-1.2c0.4-0.8,0.1-2.5,0.1-3.5c0.5,0.1,0.6,0.4,0.9,0.9c0.2,0,0,0.2,0,0.2c-0.5,0.7-0.2,3.5-0.6,3.9
				C92.9,512.9,91.7,511.2,90.9,513L90.9,513z M99.9,504.5c-0.4-0.7-1.1-1.5-0.3-2.3c0.1-0.1,0.5-0.4,0.6-0.6c0.2-0.4,0-1.5,0.4-0.5
				c1,2.1-0.4,1.5-0.6,2.6C99.9,504.1,100.2,504.4,99.9,504.5L99.9,504.5z M84.7,504.3c-1.7-2.1,0.5-1.8,0.2-3.7
				c0.2,0.2,0.4,0.2,0.6,0.5C86.4,502.8,84.6,502.9,84.7,504.3L84.7,504.3z M94.4,504.1c-0.4-0.9-0.8-2,0.4-2.4
				c-0.7-1.2-0.6-2.4-0.8-4.1c1.3,0,3,0.1,4.4-0.1c0.1,1.3,0.5,2.4,0.3,3.7c-0.3,2.7-1.9,1.1-3.9,1.9
				C94.4,503.3,94.6,503.9,94.4,504.1L94.4,504.1z M79.2,504c-0.5-0.9-0.7-1.9,0.4-2.4c-0.8-1-0.7-2.4-0.8-4.1c1.3,0.1,3,0.1,4.3,0
				c0.1,1.3,0.5,2.5,0.3,4C83,504.1,79.4,501.9,79.2,504L79.2,504z M63.8,468c-0.3-1.6-0.7-3.3-1.1-4.8c0.2,0,0.4,0,0.6-0.1
				c0.5-0.2,1.2-0.6,1.7-0.7c0,0,0.3,0,0.2,0c0.1,0.2,0.5,0.7,0.6,0.8c0.1,0.2-2.2-0.1-2.1,0.5c0.3,1.2,0.7,2.7,0.9,3.8
				C64.4,467.7,64.1,467.8,63.8,468L63.8,468z M114.5,467.9c-0.9-0.2-2.1-0.2-2.4-1.1c-0.8-2,1.5-1.6,2.6-2.3
				c0.1-0.1,0.2-0.2,0.3-0.3c0.6-1.8-1.9-0.8-2.4-0.5c0.1-0.2,0.1-0.3,0.1-0.5c0.1-0.2,0.2-0.5,0.4-0.7c0.2-0.4,1.1-0.1,1.7,0.1
				c0.8,0.3,1.5,1,1.1,2.1c-0.4,0.9-1.6,0.8-2.4,1.2c-0.4,0.2-0.4,0.6-0.4,0.6c0.5,1.5,2.6-0.9,2.2,0.1
				C114.9,466.9,114.5,467.8,114.5,467.9L114.5,467.9z M67.2,466.5c-0.2-1.1-1.1-3.2-0.9-4.3c0.1-0.4,0.5-0.7,0.9-0.9
				c2.6-1.2,3.1,2.3,3.5,4c-0.3,0.1-0.5,0.1-0.8,0.2c-0.2-1.3-0.4-4.5-2.3-3.7c-1,0.4,0.3,3.5,0.5,4.3
				C67.8,466.3,67.6,466.4,67.2,466.5L67.2,466.5z M109.2,466c-0.2,0-0.6-0.2-0.8-0.3c0-2-0.4-3.5-0.7-5.2c0.3,0.1,0.6,0.2,0.9,0.3
				c0,0.6,0.1,1.2,0.2,1.7c0.5,0.2,1.5,0.5,1.5,0.5c0.3-0.2,0.6-0.9,0.8-1.1c0.2-0.3,0.3-0.2,0.8,0c0.2,0.1,0.4,0.1,0.5,0.1
				c-0.6,0.8-1.4,1.6-1.9,2.4C110.2,464.8,109.2,466,109.2,466L109.2,466z M106.7,465.1c-1.2-0.5-2.4-0.8-3.5-0.8
				c0-0.2-0.1-0.6-0.1-0.8c0-0.3,0.1-0.5,0.1-0.5c0.3,0.5,0.7,0.8,1.4,1c0.5-1.5,0.7-2.7,1-4.1c1.3,0.4,1.2,0.2,1,0.6
				c-0.2,0.4-1,3.8-1,3.8c0.4,0.1,1.3-0.2,1.6-0.4c0,0,0.2-0.1,0.3-0.1c-0.1,0.3-0.3,0.4-0.2,0.4
				C106.9,464.6,106.8,464.8,106.7,465.1L106.7,465.1z M71.6,465.1c0,0.1,0.1-0.3,0.1-0.3c0-0.3,0.2-0.6,0.3-0.9
				c0.2-0.4,0.3-0.8,0.4-1.4c-0.7-0.6-1.5-1.2-2.3-1.7c0.7-0.2,1-0.7,1.4,0.1c1.2,1.9,1.3,0.4,1.7-1.1c0.5-0.1,0.8-0.1,1.2-0.2
				c-0.4,1-0.8,1.9-1,3.1c0.7,0.5,1.3,0.9,2,1.4c-0.7,0.1-0.9,0.4-1.3-0.1c-1.2-1.4-1-1.1-1.4,0.7C72.4,464.8,72,465,71.6,465.1
				L71.6,465.1z M102.3,464.1c-0.2,0-0.3,0-0.5,0c-0.1,0-0.4-0.2-0.6-0.2c0.4-1.5,0.5-3.1,0.7-4.8c0,0,0.3,0.1,0.3,0.1
				c0.2,0,0.6,0.2,0.8,0.3C102.8,460.8,102.4,462.5,102.3,464.1L102.3,464.1z M77.8,463.8c-0.2-1.5-0.6-3.3-0.9-4.8
				c0.8,0,2-0.1,2.6-0.3c0.8-0.2,0.8-0.1,1.1,0.6c0,0.1,0.1,0.2,0.1,0.4c-0.7-0.3-1.7-0.4-2.7-0.3c0.4,1.9-0.1,2,1.6,1.3
				c0,0.1-0.1,0.3-0.1,0.3c0,0.1-0.1,0.4-0.1,0.4c0,0,0,0.2,0,0.2c-0.4-0.1-0.7-0.1-1.2,0c0.1,0.7,0.2,1.5,0.3,1.5
				c0.3-0.1,1-0.3,1.3-0.5c0.3-0.2,0.5-0.4,0.7-0.6c0,0.1-0.1,0.4-0.1,0.4c0,0.3-0.1,0.7-0.2,1C79.4,463.5,78.6,463.6,77.8,463.8
				L77.8,463.8z M98.7,463.6c-0.1,0-0.2,0-0.3,0c-0.7-0.1-1.4-0.4-2.1-0.4c0.1-0.4,0.2-0.9,0.2-1.3c0.1-1.1,0.1-2.3,0.2-3.4
				c0.3,0,0.7,0.1,1.1,0.2c-0.1,0.7-0.2,1.5-0.2,2.1c0.3,0,0.5,0,0.8,0.1c0.7-1.1,1.7-2.2,3.2-2c0,0,0.1,0.2,0.1,0.2
				c-1,0.6-1.9,1.4-2.5,2.4C99.6,462,100.3,463.5,98.7,463.6L98.7,463.6z M81.7,463.3c-0.1-0.2-0.3-0.5-0.4-0.7
				c-0.1-0.3,0-0.6,0-0.6c0.5,0.4,0.9,0.5,1.7,0.5c0-1.6-0.2-2.8-0.4-4.2c1.4,0,1.2-0.2,1.1,0.2c-0.1,0.5,0.2,3.9,0.3,3.9
				c0.4,0,1.2-0.6,1.4-0.8c0,0,0.2-0.1,0.2-0.1c0,0.3-0.1,0.4-0.1,0.5c-0.1,0.4-0.1,0.6-0.1,1C84,462.8,82.8,463,81.7,463.3
				L81.7,463.3z M94.7,463.1c-0.7,0-1.4-0.2-2.3-0.2c0.2-1.5,0.1-3.2,0.1-4.8c1,0.1,2,0.2,3.2,0.2c0.4,1,0.8,1.1-0.3,0.8
				c-1.9-0.6-2-0.6-1.9,1.4c2-0.2,1.5-0.4,1.4,0.9c-0.4-0.2-0.7-0.3-1.3-0.3c0,0.2-0.1,1.4-0.1,1.4c1.1,0,1.6-0.2,2.2-0.6
				c-0.1,0.3-0.1,0.5-0.2,0.9C95.2,463,95.1,463.1,94.7,463.1L94.7,463.1z M87.3,462.9c0,0,0.1-0.4,0.2-0.5c0.6-1.1,0.9-2.4,1.5-3.6
				c0.3-0.7,0.5-1.5,1-0.4c0.3,0.6,0.4,1.2,0.6,1.8c0.3,1,0.7,1.9,1.2,2.8c-0.4,0-0.8,0-1.1-0.1c-0.2-1.2-0.5-2.2-0.9-3.2
				c-0.6,1-1,2.1-1.4,3.3C87.9,462.8,87.8,462.8,87.3,462.9L87.3,462.9z"/>
			<path class="st2" d="M80,501.6c-0.4-0.8-0.5-1.8-0.4-3c1,0.2,2.3,0.2,3.2,0C82.7,501.6,83.1,501.2,80,501.6L80,501.6z
				 M95.1,501.6c-0.2-0.7-0.3-1.4-0.3-2.3c0-0.3,0-0.4,0-0.6c0.9,0.3,2.3,0.3,3.2,0C98,501.5,97.9,501.6,95.1,501.6L95.1,501.6z
				 M109,465c0-0.6,0-1.1-0.1-1.7l1.1,0.3L109,465L109,465z M98.1,463c-0.2,0-0.4,0-0.7-0.1c0,0,0.1-1.7,0.2-1.7
				C98.6,461.3,99.4,462.9,98.1,463L98.1,463z"/>
		</g>
	</g>
</g>
</svg>
